<svg width="64" height="64" viewBox="0 0 64 64" fill="none" xmlns="http://www.w3.org/2000/svg">
<path d="M20.4103 4C20.4951 4.00064 20.639 4.05246 20.8542 4.20426C21.0645 4.3526 21.3202 4.5799 21.6218 4.8901C22.2243 5.50987 22.9946 6.44437 23.9337 7.69719C25.8113 10.202 28.3516 13.9627 31.5551 18.9816C35.2034 24.6307 40.5485 33.6448 47.5898 46.0233L47.9059 45.9347C47.8084 42.6097 47.696 37.0083 47.5698 29.1298L47.5149 25.6136C47.4032 15.8211 47.1798 9.62062 46.843 7.0256L46.8271 6.90264L46.7049 6.88081C45.8838 6.73433 44.4005 6.66197 42.2673 6.65936C42.1516 6.32395 42.0944 5.99064 42.0944 5.65855C42.0944 5.47278 42.1712 5.20587 42.2731 4.93142C42.3228 4.7976 42.376 4.66763 42.4244 4.55164C42.4521 4.48534 42.4779 4.42181 42.5012 4.36556H54.7928C54.9259 4.61595 54.9997 4.9674 55 5.43413L54.956 5.8952C53.1749 6.43405 52.679 7.19743 52.0629 8.2046C51.4469 9.21211 51.0894 10.6076 50.9767 12.376C50.493 22.5012 50.251 37.8473 50.2503 58.4134L48.413 59.0186L47.2675 57.1111C45.8266 54.6244 44.3917 52.1635 42.9633 49.7287L42.8749 49.5788L42.7277 49.6708C41.635 50.3542 39.9273 50.7177 37.9279 50.6283C35.9325 50.539 33.6636 49.9991 31.4603 48.8951C27.0583 46.6901 22.9139 42.2316 21.7378 34.6043C21.2282 31.2989 20.298 28.3483 19.0527 25.7185L18.7304 25.791V35.3401C18.7451 38.9236 18.6721 42.1447 18.8715 44.9647C19.2727 50.6381 17.9571 54.88 15.8555 57.3839C13.7599 59.881 10.8816 60.6574 8.08807 59.423C8.02609 59.3956 7.99756 59.3411 8.00016 59.2792C8.00291 59.2149 8.04004 59.1509 8.1099 59.1191C10.8632 57.8739 15.0348 54.6299 15.992 49.8475C16.4808 47.4052 16.7049 43.8687 16.836 39.2759C16.9671 34.6808 17.0053 29.0124 17.1196 22.3049L17.1206 22.2531L17.0925 22.2098C15.0765 19.1116 12.5944 16.5542 9.89558 14.4575C9.81346 14.3939 9.80767 14.3069 9.84135 14.2423C9.85858 14.2091 9.88434 14.1857 9.9121 14.1746C9.93765 14.1641 9.97488 14.1593 10.0265 14.18C12.6611 15.2299 14.9305 16.6957 16.8888 18.6669L17.1725 18.9522L17.1784 18.5498C17.2182 15.7579 17.2521 12.8015 17.2806 9.68066L17.2812 9.6261L17.2495 9.5815C16.3152 8.2615 15.4771 7.38169 14.7339 6.97236C14.0115 6.57451 12.883 6.30754 11.3675 6.15862C11.2874 5.90708 11.2449 5.59553 11.2449 5.21995C11.2449 4.80674 11.2865 4.49996 11.3596 4.28853L20.4103 4ZM18.7304 20.7896L18.7648 20.835C21.5561 24.5289 23.1634 28.0085 25.1316 34.6781C26.6643 39.8706 29.4764 43.6995 32.5452 45.9394C35.6089 48.1756 38.9528 48.8416 41.5226 47.6445L41.6916 47.566L41.5971 47.4052C36.4395 38.6515 31.3622 30.2379 26.3647 22.1644L25.8637 21.3684C23.3749 17.441 21.0966 14.2389 19.0296 11.7638L18.7304 11.4057V20.7896Z" fill="#C07D30" stroke="#C07D30" stroke-width="1.5"/>
</svg>
